Run_50001
nRows=4
nColumns=164

# SIMM Motion File Header:
name Run_50001
datacolumns 164
datarows 4
otherdata 1
range 1.38333300 1.40833300
endheader
time	pelvis_tilt	pelvis_list	pelvis_rotation	pelvis_tx	pelvis_ty	pelvis_tz	hip_flexion_r	hip_adduction_r	hip_rotation_r	knee_angle_r	ankle_angle_r	hip_flexion_l	hip_adduction_l	hip_rotation_l	knee_angle_l	ankle_angle_l	lumbar_extension	lumbar_bending	lumbar_rotation	arm_flex_r	arm_add_r	arm_rot_r	elbow_flex_r	pro_sup_r	arm_flex_l	arm_add_l	arm_rot_l	elbow_flex_l	pro_sup_l	subtalar_angle_r	mtp_angle_r	subtalar_angle_l	mtp_angle_l	wrist_flex_r	wrist_dev_r	wrist_flex_l	wrist_dev_l	LASI_tx	LASI_ty	LASI_tz	RASI_tx	RASI_ty	RASI_tz	LPSI_tx	LPSI_ty	LPSI_tz	RPSI_tx	RPSI_ty	RPSI_tz	RTH1_tx	RTH1_ty	RTH1_tz	RTH2_tx	RTH2_ty	RTH2_tz	RTH3_tx	RTH3_ty	RTH3_tz	LTH1_tx	LTH1_ty	LTH1_tz	LTH2_tx	LTH2_ty	LTH2_tz	LTH3_tx	LTH3_ty	LTH3_tz	RTB1_tx	RTB1_ty	RTB1_tz	RTB2_tx	RTB2_ty	RTB2_tz	RTB3_tx	RTB3_ty	RTB3_tz	LTB1_tx	LTB1_ty	LTB1_tz	LTB2_tx	LTB2_ty	LTB2_tz	LTB3_tx	LTB3_ty	LTB3_tz	RCAL_tx	RCAL_ty	RCAL_tz	RTOE_tx	RTOE_ty	RTOE_tz	RMT5_tx	RMT5_ty	RMT5_tz	LCAL_tx	LCAL_ty	LCAL_tz	LTOE_tx	LTOE_ty	LTOE_tz	LMT5_tx	LMT5_ty	LMT5_tz	LACR_tx	LACR_ty	LACR_tz	RACR_tx	RACR_ty	RACR_tz	CLAV_tx	CLAV_ty	CLAV_tz	C7_tx	C7_ty	C7_tz	RUA1_tx	RUA1_ty	RUA1_tz	RUA2_tx	RUA2_ty	RUA2_tz	RUA3_tx	RUA3_ty	RUA3_tz	RLEL_tx	RLEL_ty	RLEL_tz	RMEL_tx	RMEL_ty	RMEL_tz	LUA1_tx	LUA1_ty	LUA1_tz	LUA2_tx	LUA2_ty	LUA2_tz	LUA3_tx	LUA3_ty	LUA3_tz	LLEL_tx	LLEL_ty	LLEL_tz	LMEL_tx	LMEL_ty	LMEL_tz	RFAsuperior_tx	RFAsuperior_ty	RFAsuperior_tz	RFAradius_tx	RFAradius_ty	RFAradius_tz	RFAulna_tx	RFAulna_ty	RFAulna_tz	LFAsuperior_tx	LFAsuperior_ty	LFAsuperior_tz	LFAradius_tx	LFAradius_ty	LFAradius_tz	LFAulna_tx	LFAulna_ty	LFAulna_tz
      1.38333300	    -11.87790500	     -9.85516119	     -6.04111873	      1.15228094	      1.00884665	     -0.32017245	     59.74537509	     12.37908555	     -6.34652668	    -69.94052024	     -5.51474890	    -16.96294383	     -3.73595330	     -0.97967524	    -12.59596080	    -32.40969101	      1.16230016	     11.59938113	    -11.93150470	    -47.71318299	    -14.67035713	    -25.05626640	     64.21566695	     60.67200435	     -5.97058969	    -21.47285033	      1.19146000	    150.00035077	     90.28083231	      0.00000000	      0.00000000	      0.00000000	      0.00000000	      0.00000000	      0.00000000	      0.00000000	      0.00000000	      1.16561317	      0.99317902	     -0.42872935	      1.14730916	      1.03710283	     -0.20176231	      1.00494248	      1.06714732	     -0.39319144	      0.98961262	      1.07584671	     -0.29660134	      1.15033189	      0.92089559	     -0.14010987	      1.30069501	      0.84860220	     -0.16450804	      1.30810777	      0.74365995	     -0.17772499	      1.03592261	      0.84777351	     -0.49672256	      1.04631754	      0.73073094	     -0.46084773	      0.91513958	      0.66447232	     -0.44712248	      1.39864118	      0.54436421	     -0.23512905	      1.32549707	      0.50454321	     -0.17630440	      1.32044021	      0.37708978	     -0.23932519	      0.83264277	      0.43392373	     -0.38510045	      0.74184158	      0.38168886	     -0.43558302	      0.70063103	      0.28912728	     -0.36776594	      1.16071719	      0.28028095	     -0.27457531	      1.35721260	      0.20288062	     -0.28517519	      1.32528100	      0.16777024	     -0.18594663	      0.55141132	      0.29342505	     -0.36895930	      0.62631817	      0.11513818	     -0.29210063	      0.59171215	      0.08504635	     -0.39285601	      1.18739733	      1.51111462	     -0.50383195	      1.09486949	      1.50597078	     -0.16005884	      1.20177664	      1.45843195	     -0.28507207	      1.10258936	      1.53695411	     -0.35315575	      1.03561288	      1.45751849	     -0.12296946	      1.00728358	      1.37544810	     -0.12540057	      0.93304448	      1.40655044	     -0.15780254	      0.84910798	      1.32938307	     -0.13891421	      0.86694787	      1.31096141	     -0.20020880	      1.18796835	      1.43282091	     -0.56096633	      1.13356656	      1.36961483	     -0.56607252	      1.20725235	      1.33254547	     -0.58492895	      1.17887975	      1.21292750	     -0.62606197	      1.12544864	      1.19349646	     -0.57393777	      0.87512987	      1.25875807	     -0.08147431	      0.89372212	      1.07878624	     -0.02872612	      0.83735824	      1.06898181	     -0.06675993	      1.24030752	      1.26540910	     -0.59181104	      1.28840228	      1.38385529	     -0.45286145	      1.33751300	      1.33938304	     -0.44141798
      1.39166700	    -13.02199345	    -10.08774112	     -6.78872624	      1.15435543	      1.01185986	     -0.32142248	     59.43664819	     13.26684848	     -5.72415960	    -62.39424506	     -6.13897373	    -17.21312282	     -3.56531674	     -0.61432717	    -13.29448662	    -34.63676093	      2.83451989	     12.44117635	    -11.67806521	    -49.21126244	    -14.62765214	    -26.01447135	     65.22704999	     61.13579561	     -5.13606335	    -21.16168050	      2.47620503	    150.00035077	     91.27007592	      0.00000000	      0.00000000	      0.00000000	      0.00000000	      0.00000000	      0.00000000	      0.00000000	      0.00000000	      1.16779496	      0.99498035	     -0.42805283	      1.14912407	      1.04124366	     -0.20437527	      1.00877212	      1.07244280	     -0.39716864	      0.99259662	      1.08130813	     -0.30120526	      1.14969414	      0.92450082	     -0.14246794	      1.29741212	      0.84658926	     -0.16621001	      1.30290656	      0.74142424	     -0.18099471	      1.03581415	      0.85250274	     -0.49871541	      1.04282613	      0.73610048	     -0.46136556	      0.91015690	      0.67364850	     -0.44472383	      1.40680238	      0.54348508	     -0.23659330	      1.33951188	      0.49634075	     -0.17648023	      1.34629608	      0.36895270	     -0.24084544	      0.82240075	      0.44365197	     -0.38292973	      0.73223253	      0.39318856	     -0.43617869	      0.68418046	      0.30330993	     -0.36858515	      1.19729139	      0.25604818	     -0.27509026	      1.40058076	      0.19935118	     -0.28921718	      1.37340195	      0.15917009	     -0.19026956	      0.53847343	      0.31535218	     -0.37594832	      0.59752474	      0.13341877	     -0.29253635	      0.56441527	      0.10315950	     -0.39222920	      1.19032474	      1.51564463	     -0.50145823	      1.09315146	      1.50761612	     -0.16018114	      1.20183387	      1.46100372	     -0.28344264	      1.10375342	      1.53956333	     -0.35296559	      1.03324018	      1.46135355	     -0.12428527	      1.00401172	      1.37928079	     -0.12694529	      0.93021612	      1.41196788	     -0.15998664	      0.84535697	      1.33502072	     -0.14264627	      0.86337086	      1.31721866	     -0.20374981	      1.19227046	      1.43864621	     -0.55906237	      1.13800736	      1.37475267	     -0.56474791	      1.21218891	      1.33787236	     -0.58429208	      1.18521878	      1.21726721	     -0.62521966	      1.13065540	      1.19765790	     -0.57442675	      0.87037289	      1.26494308	     -0.08486433	      0.89048083	      1.08509171	     -0.03150823	      0.83417617	      1.07471714	     -0.06930069	      1.24518658	      1.27155675	     -0.59085524	      1.28336820	      1.39484017	     -0.45250896	      1.33355495	      1.35219715	     -0.43880659
      1.40000000	    -13.92959160	     -9.89721298	     -7.11584034	      1.15594019	      1.01404432	     -0.32325933	     58.69494533	     13.48788423	     -5.08319076	    -54.84793576	     -7.10883330	    -16.95809139	     -2.93269394	      0.74123808	    -15.40894245	    -35.56456094	      4.20342001	     12.72547845	    -11.83823784	    -50.40735157	    -14.61553380	    -26.60909054	     66.09556551	     61.71793668	     -4.67599772	    -20.93302279	      3.60916037	    150.00035077	     92.12015381	      0.00000000	      0.00000000	      0.00000000	      0.00000000	      0.00000000	      0.00000000	      0.00000000	      0.00000000	      1.16928949	      0.99730438	     -0.42778738	      1.15104278	      1.04437884	     -0.20737914	      1.01144541	      1.07710331	     -0.40031898	      0.99552091	      1.08602653	     -0.30507617	      1.14768815	      0.92391727	     -0.14458530	      1.29350404	      0.84233576	     -0.16791988	      1.29742841	      0.73729882	     -0.18324229	      1.03589665	      0.85737724	     -0.50007727	      1.04174015	      0.74075264	     -0.46163185	      0.90891590	      0.67952253	     -0.44318717	      1.41291459	      0.54106526	     -0.23750458	      1.35206890	      0.48766051	     -0.17698541	      1.37045083	      0.36167023	     -0.24304345	      0.81374190	      0.45110573	     -0.38010749	      0.72389032	      0.40367018	     -0.43602785	      0.66790383	      0.31793903	     -0.36895660	      1.23335982	      0.23466232	     -0.27686978	      1.44102395	      0.19741815	     -0.29337075	      1.41849585	      0.15261886	     -0.19480841	      0.52458322	      0.33751414	     -0.38347182	      0.56893231	      0.15531703	     -0.29180381	      0.53833538	      0.12345354	     -0.39104748	      1.19326433	      1.51896330	     -0.49979666	      1.09190584	      1.50841241	     -0.15998267	      1.20224422	      1.46274908	     -0.28207016	      1.10498272	      1.54157392	     -0.35256341	      1.03151595	      1.46388259	     -0.12533860	      1.00133975	      1.38176496	     -0.12858867	      0.92778057	      1.41643881	     -0.16178260	      0.84217340	      1.33961099	     -0.14616840	      0.86008321	      1.32244559	     -0.20705480	      1.19611249	      1.44279424	     -0.55775429	      1.14183612	      1.37796201	     -0.56355372	      1.21648986	      1.34165672	     -0.58417165	      1.19011296	      1.22060037	     -0.62482156	      1.13443929	      1.20108437	     -0.57524805	      0.86612678	      1.27008512	     -0.08812543	      0.88795859	      1.09032639	     -0.03466157	      0.83150724	      1.07942836	     -0.07197911	      1.24926348	      1.27570255	     -0.59026355	      1.27912117	      1.40225610	     -0.45226937	      1.33019961	      1.36118284	     -0.43627826
      1.40833300	    -14.46246798	     -9.18360425	     -7.15327349	      1.15709308	      1.01540252	     -0.32501077	     57.49851997	     13.16358618	     -4.27577340	    -47.55515342	     -8.47520991	    -16.45021699	     -1.67560415	      2.77820501	    -18.70997504	    -35.60217584	      5.09118582	     12.27565343	    -12.21012131	    -51.25628490	    -14.53717539	    -26.84302530	     66.82237053	     62.24787532	     -4.64244081	    -20.92344396	      4.50364851	    150.00035077	     92.99815795	      0.00000000	      0.00000000	      0.00000000	      0.00000000	      0.00000000	      0.00000000	      0.00000000	      0.00000000	      1.17048172	      1.00017176	     -0.42782861	      1.15244801	      1.04609462	     -0.20934675	      1.01303434	      1.08086844	     -0.40231172	      0.99794747	      1.08951263	     -0.30749985	      1.14461389	      0.91993713	     -0.14633962	      1.28949705	      0.83645575	     -0.16945738	      1.29206657	      0.73159394	     -0.18421558	      1.03655437	      0.86208616	     -0.50074535	      1.04336574	      0.74383790	     -0.46084110	      0.91130857	      0.68165756	     -0.44275504	      1.41678741	      0.53705747	     -0.23834084	      1.36272799	      0.47849079	     -0.17786921	      1.39232753	      0.35513549	     -0.24575008	      0.80635666	      0.45691205	     -0.37722362	      0.71635881	      0.41352756	     -0.43553190	      0.65233336	      0.33314647	     -0.36919709	      1.26784886	      0.21659892	     -0.27990715	      1.47782184	      0.19667404	     -0.29731064	      1.45955638	      0.14748597	     -0.19961576	      0.51101319	      0.36027396	     -0.39123008	      0.54141389	      0.18037969	     -0.29036062	      0.51337011	      0.14579206	     -0.38935439	      1.19623268	      1.52110495	     -0.49887764	      1.09116212	      1.50857024	     -0.15947148	      1.20293708	      1.46398091	     -0.28083635	      1.10624123	      1.54310661	     -0.35182046	      1.03042372	      1.46515988	     -0.12602433	      0.99939539	      1.38301666	     -0.13018802	      0.92594440	      1.41990940	     -0.16322732	      0.83972673	      1.34314646	     -0.14948936	      0.85740775	      1.32658716	     -0.21013218	      1.19948190	      1.44502973	     -0.55702840	      1.14495405	      1.37957234	     -0.56297273	      1.22000689	      1.34405443	     -0.58439775	      1.19336947	      1.22305556	     -0.62484899	      1.13668753	      1.20392053	     -0.57639040	      0.86265034	      1.27410032	     -0.09125269	      0.88614231	      1.09440367	     -0.03804414	      0.82946428	      1.08302485	     -0.07490460	      1.25234785	      1.27796761	     -0.58981505	      1.27629353	      1.40593092	     -0.45147137	      1.32813962	      1.36601422	     -0.43376599
